:FULLY-SPECIFIED
:FORCE-ALL-JOINTS-BE-3DOF
:DEGREES
114
root 9.36081 16.1867 -21.4367 4.1334 3.70643 4.57257
lfemur 13.7065 0.45114 -28.8112
ltibia -0.167267 0 0
lfoot -14.0502 2.65786 0
ltoes -2.87663 0 0
rfemur -40.2211 11.7841 7.34982
rtibia 28.6936 0 0
rfoot -23.0872 -8.90052 0
rtoes -19.0153 0 0
lowerback -8.05519 -3.25235 -5.59172
upperback -0.99014 -3.92941 2.34297
thorax 4.02764 -2.0609 5.12936
lowerneck -19.4162 -5.14171 -13.2298
upperneck 21.3856 -5.89099 10.8015
head 10.8351 -2.52405 5.24828
lclavicle 8.35511e-15 4.97145e-15 0
lhumerus -24.9682 -26.5523 92.5315
lradius 42.5213 0 0
lwrist 13.0444 0 0
lhand -13.065 -25.3399 0
lfingers 7.12502 0 0
lthumb 13.0306 4.23239 0
rclavicle 8.35511e-15 4.97145e-15 0
rhumerus -46.3802 9.49057 -84.5206
rradius 35.5237 0 0
rwrist -19.3167 0 0
rhand -29.4697 -23.4993 0
rfingers 7.12502 0 0
rthumb -2.80537 -53.4603 0
115
root 9.35402 16.1749 -21.3024 4.23169 4.03138 4.63309
lfemur 14.0368 0.472366 -28.7253
ltibia 1.59028e-14 0 0
lfoot -14.3807 2.42559 0
ltoes -2.85137 0 0
rfemur -40.5964 12.2383 6.76713
rtibia 28.2368 0 0
rfoot -23.451 -9.44436 0
rtoes -19.0088 0 0
lowerback -8.14713 -3.307 -5.6302
upperback -0.9908 -3.99267 2.31486
thorax 4.08787 -2.09412 5.10896
lowerneck -19.3289 -5.17902 -13.265
upperneck 21.3105 -5.95092 10.8474
head 10.8023 -2.55068 5.25973
lclavicle 1.08213e-14 3.18055e-15 0
lhumerus -25.3625 -26.7335 92.9123
lradius 42.6137 0 0
lwrist 13.0172 0 0
lhand -12.7579 -25.2959 0
lfingers 7.12502 0 0
lthumb 13.3266 4.25797 0
rclavicle 1.08213e-14 3.18055e-15 0
rhumerus -46.3924 9.13805 -84.2543
rradius 35.2817 0 0
rwrist -19.1783 0 0
rhand -29.3331 -23.3051 0
rfingers 7.12502 0 0
rthumb -2.67343 -53.2681 0
116
root 9.34104 16.1581 -21.1629 4.33663 4.34039 4.70559
lfemur 14.4606 0.503849 -28.6372
ltibia 1.72354e-14 0 0
lfoot -14.6371 2.15446 0
ltoes -2.91718 0 0
rfemur -40.9265 12.5378 6.27219
rtibia 27.8172 0 0
rfoot -23.7921 -10.0829 0
rtoes -19.3439 0 0
lowerback -8.20677 -3.35977 -5.6977
upperback -1.00758 -4.05291 2.29258
thorax 4.11481 -2.12511 5.11329
lowerneck -19.273 -5.20582 -13.3322
upperneck 21.2802 -5.99514 10.9316
head 10.7922 -2.56798 5.29533
lclavicle 6.75218e-15 1.03442e-15 0
lhumerus -25.7965 -26.8724 93.3272
lradius 42.6484 0 0
lwrist 12.9372 0 0
lhand -12.5072 -25.1686 0
lfingers 7.12502 0 0
lthumb 13.5683 4.36967 0
rclavicle 6.75218e-15 1.03442e-15 0
rhumerus -46.4715 8.8387 -84.0255
rradius 35.0915 0 0
rwrist -19.0008 0 0
rhand -29.2448 -23.1898 0
rfingers 7.12502 0 0
rthumb -2.58814 -53.1541 0
117
root 9.32806 16.1413 -21.0234 4.44581 4.63902 4.78506
lfemur 14.891 0.542083 -28.5439
ltibia 1.54316e-14 0 0
lfoot -14.9019 1.85799 0
ltoes -3.02891 0 0
rfemur -41.2236 12.7357 5.83009
rtibia 27.4505 0 0
rfoot -24.1449 -10.856 0
rtoes -19.9389 0 0
lowerback -8.24586 -3.40867 -5.77689
upperback -1.03128 -4.108 2.26894
thorax 4.12294 -2.15303 5.12452
lowerneck -19.2334 -5.2282 -13.4287
upperneck 21.2688 -6.03369 11.056
head 10.7939 -2.58028 5.35282
lclavicle -2.54528e-15 -1.61972e-15 0
lhumerus -26.2623 -26.9907 93.7672
lradius 42.6323 0 0
lwrist 12.8109 0 0
lhand -12.2872 -24.9748 0
lfingers 7.12502 0 0
lthumb 13.7802 4.54929 0
rclavicle -2.54528e-15 -1.61972e-15 0
rhumerus -46.5884 8.55457 -83.8133
rradius 34.935 0 0
rwrist -18.7836 0 0
rhand -29.173 -23.1279 0
rfingers 7.12502 0 0
rthumb -2.51885 -53.0932 0
118
root 9.31508 16.1245 -20.8839 4.55995 4.92764 4.87183
lfemur 15.3238 0.586291 -28.4463
ltibia 1.21259e-14 0 0
lfoot -15.1515 1.54584 0
ltoes -3.19428 0 0
rfemur -41.4897 12.8384 5.44349
rtibia 27.1369 0 0
rfoot -24.4801 -11.6731 0
rtoes -20.6523 0 0
lowerback -8.27086 -3.45624 -5.86722
upperback -1.05891 -4.16098 2.2443
thorax 4.11955 -2.17966 5.14189
lowerneck -19.2099 -5.24719 -13.5357
upperneck 21.269 -6.06732 11.1974
head 10.8033 -2.58894 5.41975
lclavicle -1.45046e-14 -4.47263e-15 0
lhumerus -26.7458 -27.0747 94.2181
lradius 42.5598 0 0
lwrist 12.6415 0 0
lhand -12.0914 -24.7477 0
lfingers 7.12502 0 0
lthumb 13.9689 4.76345 0
rclavicle -1.45046e-14 -4.47263e-15 0
rhumerus -46.7259 8.28588 -83.6195
rradius 34.7974 0 0
rwrist -18.5598 0 0
rhand -29.1271 -23.0891 0
rfingers 7.12502 0 0
rthumb -2.47453 -53.055 0
119
root 9.3021 16.1077 -20.7445 4.67977 5.20662 4.96619
lfemur 15.7548 0.635697 -28.3451
ltibia 8.95268e-15 0 0
lfoot -15.3623 1.22767 0
ltoes -3.42099 0 0
rfemur -41.7268 12.8525 5.11507
rtibia 26.8764 0 0
rfoot -24.7685 -12.4436 0
rtoes -21.3424 0 0
lowerback -8.28825 -3.50498 -5.96815
upperback -1.08748 -4.21491 2.219
thorax 4.11192 -2.2068 5.16468
lowerneck -19.2022 -5.26381 -13.6342
upperneck 21.2737 -6.09681 11.3326
head 10.8162 -2.5953 5.48367
lclavicle -2.65593e-14 -7.21512e-15 0
lhumerus -27.2331 -27.1112 94.6658
lradius 42.4253 0 0
lwrist 12.4321 0 0
lhand -11.913 -24.5202 0
lfingers 7.12502 0 0
lthumb 14.1408 4.97875 0
rclavicle -2.65593e-14 -7.21512e-15 0
rhumerus -46.8665 8.03284 -83.4454
rradius 34.6641 0 0
rwrist -18.3627 0 0
rhand -29.1164 -23.043 0
rfingers 7.12502 0 0
rthumb -2.46415 -53.009 0
120
root 9.28912 16.0909 -20.605 4.80599 5.47633 5.06847
lfemur 16.1796 0.689524 -28.2414
ltibia 7.54646e-15 0 0
lfoot -15.5106 0.913138 0
ltoes -3.71676 0 0
rfemur -41.9368 12.7843 4.84749
rtibia 26.6694 0 0
rfoot -24.9807 -13.0766 0
rtoes -21.8678 0 0
lowerback -8.30451 -3.55741 -6.07913
upperback -1.11398 -4.27282 2.1934
thorax 4.10733 -2.23622 5.19214
lowerneck -19.2101 -5.27907 -13.7054
upperneck 21.2756 -6.1229 11.4385
head 10.8285 -2.60074 5.53213
lclavicle -3.61428e-14 -9.53794e-15 0
lhumerus -27.7102 -27.0864 95.0959
lradius 42.2232 0 0
lwrist 12.1859 0 0
lhand -11.7454 -24.3256 0
lfingers 7.12502 0 0
lthumb 14.3023 5.16183 0
rclavicle -3.61428e-14 -9.53794e-15 0
rhumerus -46.9931 7.7957 -83.2928
rradius 34.5204 0 0
rwrist -18.2254 0 0
rhand -29.15 -22.9594 0
rfingers 7.12502 0 0
rthumb -2.49665 -52.9248 0
121
root 9.27614 16.0741 -20.4655 4.93934 5.73716 5.17897
lfemur 16.5939 0.746996 -28.136
ltibia 9.54166e-15 0 0
lfoot -15.5726 0.611905 0
ltoes -4.08932 0 0
rfemur -42.1218 12.6405 4.64343
rtibia 26.5158 0 0
rfoot -25.0874 -13.4816 0
rtoes -22.0868 0 0
lowerback -8.32613 -3.61604 -6.1996
upperback -1.13543 -4.33775 2.16786
thorax 4.11306 -2.26971 5.22353
lowerneck -19.2332 -5.29399 -13.7304
upperneck 21.2675 -6.14636 11.492
head 10.8361 -2.60661 5.55268
lclavicle -4.06887e-14 -1.11319e-14 0
lhumerus -28.163 -26.9871 95.4942
lradius 41.9478 0 0
lwrist 11.906 0 0
lhand -11.5818 -24.1969 0
lfingers 7.12502 0 0
lthumb 14.4599 5.27929 0
rclavicle -4.06887e-14 -1.11319e-14 0
rhumerus -47.0884 7.57466 -83.1631
rradius 34.3516 0 0
rwrist -18.181 0 0
rhand -29.2374 -22.8079 0
rfingers 7.12502 0 0
rthumb -2.58101 -52.772 0
122
root 9.25716 16.0572 -20.3157 5.08725 5.98328 5.30928
lfemur 16.9882 0.81275 -28.0425
ltibia 1.67642e-14 0 0
lfoot -15.5418 0.326388 0
ltoes -4.61076 0 0
rfemur -42.2839 12.3964 4.50051
rtibia 26.4129 0 0
rfoot -25.131 -13.6342 0
rtoes -21.8779 0 0
lowerback -8.35571 -3.68555 -6.34496
upperback -1.15243 -4.4143 2.14213
thorax 4.13185 -2.30988 5.26643
lowerneck -19.2791 -5.30497 -13.6945
upperneck 21.2554 -6.16216 11.4776
head 10.8409 -2.61097 5.53793
lclavicle -3.9798e-14 -1.18e-14 0
lhumerus -28.5915 -26.7985 95.8624
lradius 41.6059 0 0
lwrist 11.6107 0 0
lhand -11.3863 -24.1465 0
lfingers 7.12502 0 0
lthumb 14.6482 5.31627 0
rclavicle -3.9798e-14 -1.18e-14 0
rhumerus -47.1444 7.38157 -83.067
rradius 34.1592 0 0
rwrist -18.2696 0 0
rhand -29.4689 -22.3924 0
rfingers 7.12502 0 0
rthumb -2.80454 -52.3534 0
123
root 9.23819 16.0402 -20.1659 5.25063 6.21323 5.46148
lfemur 17.364 0.888336 -27.9629
ltibia 2.82716e-14 0 0
lfoot -15.4358 0.0493439 0
ltoes -5.28933 0 0
rfemur -42.4218 12.0419 4.41611
rtibia 26.3601 0 0
rfoot -25.1434 -13.602 0
rtoes -21.33 0 0
lowerback -8.3886 -3.76486 -6.51873
upperback -1.1675 -4.50096 2.11589
thorax 4.15843 -2.35582 5.32294
lowerneck -19.3493 -5.31046 -13.6098
upperneck 21.2464 -6.16869 11.4109
head 10.8464 -2.61235 5.49637
lclavicle -3.54442e-14 -1.17503e-14 0
lhumerus -29.0067 -26.5286 96.2122
lradius 41.2034 0 0
lwrist 11.3012 0 0
lhand -11.1572 -24.1505 0
lfingers 7.12502 0 0
lthumb 14.8691 5.29649 0
rclavicle -3.54442e-14 -1.17503e-14 0
rhumerus -47.1734 7.21863 -83.0053
rradius 33.9552 0 0
rwrist -18.4727 0 0
rhand -29.8551 -21.6978 0
rfingers 7.12502 0 0
rthumb -3.17754 -51.6539 0
124
root 9.21921 16.0233 -20.0161 5.42041 6.43392 5.62158
lfemur 17.7337 0.968342 -27.8807
ltibia 4.1546e-14 0 0
lfoot -15.2672 -0.224062 0
ltoes -6.03697 0 0
rfemur -42.5327 11.6053 4.39255
rtibia 26.3606 0 0
rfoot -25.0797 -13.4325 0
rtoes -20.6173 0 0
lowerback -8.42036 -3.84787 -6.70254
upperback -1.1805 -4.59159 2.08934
thorax 4.18805 -2.40404 5.38412
lowerneck -19.4352 -5.31459 -13.4977
upperneck 21.2345 -6.17182 11.3149
head 10.8514 -2.61281 5.43934
lclavicle -2.86192e-14 -1.1281e-14 0
lhumerus -29.4118 -26.1975 96.5445
lradius 40.7333 0 0
lwrist 10.9548 0 0
lhand -10.9388 -24.1873 0
lfingers 7.12502 0 0
lthumb 15.0795 5.24448 0
rclavicle -2.86192e-14 -1.1281e-14 0
rhumerus -47.1883 7.07156 -82.965
rradius 33.7409 0 0
rwrist -18.7356 0 0
rhand -30.2858 -20.9657 0
rfingers 7.12502 0 0
rthumb -3.59343 -50.9163 0
125
root 9.20023 16.0064 -19.8664 5.58753 6.65225 5.77563
lfemur 18.1095 1.04736 -27.7795
ltibia 5.40694e-14 0 0
lfoot -15.0488 -0.498662 0
ltoes -6.76561 0 0
rfemur -42.6137 11.1146 4.43217
rtibia 26.4178 0 0
rfoot -24.8948 -13.173 0
rtoes -19.9141 0 0
lowerback -8.44656 -3.92844 -6.87804
upperback -1.19132 -4.68009 2.06272
thorax 4.21596 -2.45107 5.44104
lowerneck -19.5276 -5.3215 -13.38
upperneck 21.2141 -6.17745 11.2126
head 10.8545 -2.61438 5.37822
lclavicle -2.03152e-14 -1.06902e-14 0
lhumerus -29.8096 -25.8255 96.8601
lradius 40.1885 0 0
lwrist 10.549 0 0
lhand -10.7755 -24.2354 0
lfingers 7.12502 0 0
lthumb 15.2368 5.18477 0
rclavicle -2.03152e-14 -1.06902e-14 0
rhumerus -47.2022 6.92614 -82.9331
rradius 33.5172 0 0
rwrist -19.0036 0 0
rhand -30.6505 -20.4375 0
rfingers 7.12502 0 0
rthumb -3.94564 -50.383 0
126
root 9.18126 15.9894 -19.7166 5.7429 6.87513 5.90966
lfemur 18.5039 1.11998 -27.6427
ltibia 6.33239e-14 0 0
lfoot -14.7933 -0.77929 0
ltoes -7.38718 0 0
rfemur -42.6617 10.598 4.53728
rtibia 26.5352 0 0
rfoot -24.5438 -12.8709 0
rtoes -19.3945 0 0
lowerback -8.46277 -4.00047 -7.02687
upperback -1.19983 -4.76032 2.03622
thorax 4.23743 -2.49343 5.48476
lowerneck -19.6179 -5.33531 -13.278
upperneck 21.1793 -6.19145 11.1272
head 10.8542 -2.61912 5.32436
lclavicle -1.15241e-14 -1.02761e-14 0
lhumerus -30.203 -25.4328 97.1597
lradius 39.5621 0 0
lwrist 10.0611 0 0
lhand -10.712 -24.2734 0
lfingers 7.12502 0 0
lthumb 15.298 5.14187 0
rclavicle -1.15241e-14 -1.02761e-14 0
rhumerus -47.228 6.7681 -82.8965
rradius 33.2853 0 0
rwrist -19.2221 0 0
rhand -30.8389 -20.3546 0
rfingers 7.12502 0 0
rthumb -4.12759 -50.2968 0
